<svg id="Layer_1" data-name="Layer 1" xmlns="http://www.w3.org/2000/svg" viewBox="0 0 378 376"><path d="M371 655.89H210a108.62 108.62 0 01-108.5-108.5v-159A108.62 108.62 0 01210 279.89h161a108.62 108.62 0 01108.5 108.5v159A108.62 108.62 0 01371 655.89zm-161-341a73.58 73.58 0 00-73.5 73.5v159a73.58 73.58 0 0073.5 73.5h161a73.58 73.58 0 0073.5-73.5v-159a73.58 73.58 0 00-73.5-73.5zm81 254a99.5 99.5 0 1199.5-99.5 99.62 99.62 0 01-99.5 99.5zm0-164a64.5 64.5 0 1064.5 64.5 64.57 64.57 0 00-64.5-64.5z" transform="translate(-101.5 -279.89)" fill="#fff"/><path d="M391.5 391.39a24 24 0 10-24-24 24 24 0 0024 24z" transform="translate(-101.5 -279.89)" fill-rule="evenodd" fill="#fff"/></svg>