<svg id="Слой_1" data-name="Слой 1" xmlns="http://www.w3.org/2000/svg" viewBox="0 0 39.04 34"><defs><clipPath id="clip-path"><path fill="none" d="M291 384h29v24h-29z"/></clipPath><clipPath id="clip-path-2"><path d="M305.1 390.38l.06 1-1-.12a17.05 17.05 0 01-10-4.92l-1.42-1.34-.36 1a6.11 6.11 0 001.31 6.27c.84.89.65 1-.8.49-.51-.17-.95-.3-1-.23a7.72 7.72 0 00.76 2.83 6.82 6.82 0 002.87 2.72l1 .48h-1.22c-1.17 0-1.21 0-1.09.47a6.32 6.32 0 003.93 3.47l1.3.45-1.14.68a11.92 11.92 0 01-5.62 1.57 6.59 6.59 0 00-1.72.16 15.76 15.76 0 004.05 1.87 17.73 17.73 0 0013.77-1.57 18.39 18.39 0 007-8.22 21.61 21.61 0 001.43-6.35c0-1 .06-1.11 1.24-2.27a14.93 14.93 0 001.47-1.63c.21-.4.19-.4-.88 0-1.79.63-2 .55-1.16-.41a6.19 6.19 0 001.43-2.26c0-.07-.32 0-.67.23a12 12 0 01-1.85.72l-1.13.36-1-.7a8.79 8.79 0 00-1.78-.93 7.15 7.15 0 00-3.68.08 6.07 6.07 0 00-4.09 6.1z" clip-path="url(#clip-path)" clip-rule="evenodd" fill="none"/></clipPath><clipPath id="clip-path-3" transform="translate(-286 -379)"><path clip-path="url(#clip-path-2)" fill="none" d="M291-384h612v792H291z"/></clipPath></defs><g clip-path="url(#clip-path-3)"><path fill="#fff" d="M0 0h39.04v34H0z"/></g></svg>