<svg id="Слой_1" data-name="Слой 1" xmlns="http://www.w3.org/2000/svg" viewBox="0 0 42 27.92"><defs><clipPath id="clip-path"><path fill="none" d="M290 387h32v18h-32z"/></clipPath><clipPath id="clip-path-2"><path d="M307.57 404.85a1.66 1.66 0 00.87-.38 1.35 1.35 0 00.26-.82s0-2.52 1.16-2.89 2.68 2.43 4.28 3.51a3.08 3.08 0 002.13.63h4.27s2.23-.14 1.17-1.87a13.78 13.78 0 00-3.17-3.6c-2.68-2.45-2.32-2.05.9-6.27 2-2.58 2.76-4.15 2.51-4.82s-1.68-.47-1.68-.47h-4.81a1.07 1.07 0 00-.62.11 1.33 1.33 0 00-.43.5 27.72 27.72 0 01-1.77 3.69c-2.15 3.57-3 3.76-3.35 3.54-.82-.52-.62-2.08-.62-3.19 0-3.46.54-4.9-1-5.28a8.76 8.76 0 00-2.24-.22 10.89 10.89 0 00-4 .4c-.54.27-1 .85-.71.89a2.16 2.16 0 011.42.7 4.43 4.43 0 01.48 2.14s.28 4.07-.66 4.58c-.65.34-1.54-.37-3.45-3.61a29.17 29.17 0 01-1.72-3.49 1.41 1.41 0 00-.4-.53 2 2 0 00-.74-.29h-4.57a1.61 1.61 0 00-.94.31c-.22.26 0 .8 0 .8s3.58 8.22 7.63 12.37a11.15 11.15 0 007.94 3.55z" clip-path="url(#clip-path)" clip-rule="evenodd" fill="none"/></clipPath><clipPath id="clip-path-3" transform="translate(-285 -382)"><path clip-path="url(#clip-path-2)" fill="none" d="M290-387h612v792H290z"/></clipPath></defs><g clip-path="url(#clip-path-3)"><path fill="#fff" d="M0 0h42v27.92H0z"/></g></svg>